# xmcd
#
# Track frame offsets: 
#        150
#        13085
#        27106
#        40360
#        54819
#        62022
#        73385
#        85158
#        94889
#        104653
#        116420
#        134965
#        150677
#        164769
#        177327
#
# Disc length: 2514 seconds
#
# Revision: 1
# Processed by: cddbd v1.5.2PL0 Copyright (c) Steve Scherf et al.
# Submitted via: ExactAudioCopy v0.95b4
#
DISCID=d709d00f
DTITLE=Various Artist - Classic Bluegrass Collection, Volume 4 [CD-2 of 2)
DYEAR=2006
DGENRE=Bluegrass
TTITLE0=Ralph Stanley - I Am A Man Of Constant Sorrow[Ralph Stanley]
TTITLE1=Joe Val - Sparkling Brown Eyes[Joe Val]
TTITLE2=Mac Wiseman - 'Tis Sweet To Be Remembered[Mac Wiseman]
TTITLE3=Bill Monroe and His Bluegrass Boys - In The Pines[Bill Monroe and 
TTITLE3=His Bluegrass Boys]
TTITLE4=Hylo Brown - The Prisoner's Song[Hylo Brown]
TTITLE5=The Osborne Brothers - Tennesse Hound Dog[The Osborne Brothers
TTITLE5=]
TTITLE6=The Stonemans - Cripple Creek[The Stonemans]
TTITLE7=Reno And Smiley - Grandfather's Clock[Reno And Smiley]
TTITLE8=The Stanley Brothers - Stone Walls And Steel Bars[The Stanley 
TTITLE8=Brothers]
TTITLE9=Ricky Skaggs And Keith Whitley - Don't Cheat In Our Hometown[R
TTITLE9=icky Skaggs And Keith Whitley]
TTITLE10=Here Today - Lonesome River[Here Today]
TTITLE11=Larry Sparks - Tennessee 1949[Larry Sparks]
TTITLE12=Blue Highway - Lonesome Pine[Blue Highway]
TTITLE13=Dry Branch Fire Squad - Looking For The Stone[Dry Branch Fire
TTITLE13=Squad]
TTITLE14=Flatt And Scruggs - Cabin On The Hill[Flatt And Scruggs]
EXTD=
EXTT0=
EXTT1=
EXTT2=
EXTT3=
EXTT4=
EXTT5=
EXTT6=
EXTT7=
EXTT8=
EXTT9=
EXTT10=
EXTT11=
EXTT12=
EXTT13=
EXTT14=
PLAYORDER=
